<svg id="Layer_1" data-name="Layer 1" xmlns="http://www.w3.org/2000/svg" xmlns:xlink="http://www.w3.org/1999/xlink" viewBox="0 0 500 202.30871"><defs><style>.cls-1{fill:#a1d33c;}.cls-2{fill:#fff;}.cls-3{fill:#231f20;}</style><symbol id="A-3" data-name="A" viewBox="0 0 94.568 36.384"><path class="cls-1" d="M0,18.192A18.192,18.192,0,1,0,18.192,0,18.15267,18.15267,0,0,0,0,18.192Z"/><path class="cls-2" d="M13.727,11.059a1.71453,1.71453,0,0,0-1.933-1.47c-1.083,0-1.546.407-1.546,1.083a2.17006,2.17006,0,0,0,.116.676l4.331,15.196a1.69429,1.69429,0,0,0,1.914,1.47c1.102,0,1.585-.407,1.585-1.063a3.26758,3.26758,0,0,0-.135-.715Zm8.312,0a1.71453,1.71453,0,0,0-1.933-1.47c-1.083,0-1.546.407-1.546,1.083a2.19,2.19,0,0,0,.116.676l4.332,15.196a1.69429,1.69429,0,0,0,1.914,1.47c1.102,0,1.585-.407,1.585-1.063a3.26758,3.26758,0,0,0-.135-.715Z"/><path class="cls-3" d="M48.081,11.89a1.01589,1.01589,0,0,0-.096-.561.719.719,0,0,0-.619-.252.73069.73069,0,0,0-.638.252,1.01049,1.01049,0,0,0-.096.561v8.894H43.674a.9872.9872,0,0,0-.541.116.60389.60389,0,0,0-.213.522.61826.61826,0,0,0,.213.541.982.982,0,0,0,.541.116h7.347a.9872.9872,0,0,0,.541-.116.60389.60389,0,0,0,.213-.522.62074.62074,0,0,0-.213-.541.97345.97345,0,0,0-.541-.116H48.083ZM60.512,22.348A5.32948,5.32948,0,0,0,66.1,16.673a5.61763,5.61763,0,1,0-11.234-.047A5.37783,5.37783,0,0,0,60.512,22.348Zm0-10.15c2.494,0,4.079,1.624,4.079,4.447,0,2.842-1.624,4.485-4.118,4.485s-4.079-1.624-4.079-4.447C56.394,13.822,57.999,12.198,60.512,12.198Zm16.801-.038a8.36905,8.36905,0,0,0-4.582-1.083,8.83584,8.83584,0,0,0-2.262.213c-.425.135-.473.367-.473.851v8.971c0,.541.135.774.792.908a12.69135,12.69135,0,0,0,2.262.174,7.54,7.54,0,0,0,4.447-1.063,5.09188,5.09188,0,0,0,2.05-4.426,5.14589,5.14589,0,0,0-2.223-4.544Zm-5.858.252a12.21061,12.21061,0,0,1,1.508-.077c1.489,0,5.046.193,5.046,4.273a4.0416,4.0416,0,0,1-1.489,3.443,5.399,5.399,0,0,1-3.443.889,9.57559,9.57559,0,0,1-1.644-.116v-8.41ZM88.98,22.348a5.32948,5.32948,0,0,0,5.588-5.675,5.61763,5.61763,0,1,0-11.234-.047A5.39807,5.39807,0,0,0,88.98,22.348Zm0-10.15c2.494,0,4.079,1.624,4.079,4.447,0,2.842-1.624,4.485-4.118,4.485s-4.079-1.624-4.079-4.447C84.862,13.822,86.486,12.198,88.98,12.198Z"/></symbol></defs><use width="94.568" height="36.384" transform="matrix(5.20279, 0, 0, -5.20279, 3.5, 195.34116)" xlink:href="#A-3"/></svg>