<svg id="Layer_1" data-name="Layer 1" xmlns="http://www.w3.org/2000/svg" viewBox="0 0 500 202.30871"><defs><style>.cls-1{fill:#231f20;}</style></defs><g id="A-2" data-name="A"><path class="cls-1" d="M98.14917,6.04283A94.64917,94.64917,0,1,0,192.79834,100.692,94.44454,94.44454,0,0,0,98.14917,6.04283Zm-.692,52.79791L74.9187,137.80351c-1.50879,4.93225-3.51709,7.64807-10.057,7.64807-5.63458,0-8.04351-2.11755-8.04351-5.63464a11.29162,11.29162,0,0,1,.60357-3.51709L79.955,57.23827c1.50879-5.02588,3.51709-7.64807,9.95813-7.64807,5.73346,0,8.2464,2.11749,8.2464,5.53057A16.99977,16.99977,0,0,1,97.45721,58.84074Zm43.2508,0-22.5437,78.96277c-1.50879,4.93225-3.51709,7.64807-10.057,7.64807-5.63464,0-8.04352-2.11755-8.04352-5.63464a11.39426,11.39426,0,0,1,.60352-3.51709l22.53851-79.06158c1.50879-5.02588,3.51709-7.64807,9.95813-7.64807,5.73346,0,8.2464,2.11749,8.2464,5.53057A16.99974,16.99974,0,0,1,140.708,58.84074Z"/><path class="cls-1" d="M253.66577,87.20637h15.2858a5.06463,5.06463,0,0,0,2.81471-.60352,3.22956,3.22956,0,0,0,1.1082-2.81471,3.14192,3.14192,0,0,0-1.1082-2.71586,5.13624,5.13624,0,0,0-2.81471-.60353h-38.2249a5.10937,5.10937,0,0,0-2.81472.60353,3.21669,3.21669,0,0,0-1.1082,2.81471,3.142,3.142,0,0,0,1.1082,2.71586,5.13625,5.13625,0,0,0,2.81472.60352h15.38985V133.48a5.25737,5.25737,0,0,0,.49947,2.91877c.50467.81164,1.71173,1.31111,3.31938,1.31111a3.741,3.741,0,0,0,3.22053-1.31111,5.28548,5.28548,0,0,0,.49947-2.91877Zm35.29051,21.6332c0,17.15359,11.16519,29.52583,29.0732,29.52583s29.375-12.26818,29.375-29.77037c0-17.15359-11.16-29.52583-29.07317-29.52583C300.42322,79.0692,288.95628,91.33738,288.95628,108.83957Zm7.9499-.29657c0-14.68747,8.24642-23.13681,21.22218-23.13681s21.42509,8.5482,21.42509,23.33452c0,14.68748-8.24644,23.13681-21.22219,23.13681C305.25666,131.87752,296.90618,123.42819,296.90618,108.543ZM405.80059,132.07c6.03521-4.027,11.467-11.16519,11.5658-23.64148,0-11.46176-4.63048-18.79769-10.66574-23.02756-6.13409-4.32351-13.98508-5.53056-23.1368-5.53056a66.0306,66.0306,0,0,0-11.76872.90528c-3.41822.69718-4.1206,1.90942-4.1206,4.72414v46.67423c0,2.51814.24971,3.72519,2.46091,4.42757s6.53993,1.10819,11.76872,1.10819c7.84583,0,16.805-1.00934,23.83919-5.63462ZM375.151,130.75371V86.99824a49.82087,49.82087,0,0,1,8.55337-.60352c7.75215,0,13.48565,1.207,17.91321,4.62528,4.53164,3.42864,7.74695,9.05806,7.74695,17.91321,0,21.22738-18.50632,22.23152-26.25327,22.23152a63.52441,63.52441,0,0,1-7.84583-.40061Zm61.91837-21.91414c0,17.15359,11.16517,29.52583,29.07318,29.52583s29.375-12.26818,29.375-29.77037c0-17.1536-11.16-29.52583-29.07318-29.52583C448.63513,79.0692,437.16817,91.33738,437.06933,108.83957Zm7.9499-.29658c0-14.68747,8.24646-23.13681,21.2222-23.13681s21.42507,8.54819,21.42507,23.33452c0,14.68748-8.24642,23.13681-21.2222,23.13681S445.01923,123.42818,445.01923,108.543Z"/></g></svg>