<?xml version="1.0" encoding="utf-8"?>
<!-- Generator: Adobe Illustrator 25.3.1, SVG Export Plug-In . SVG Version: 6.00 Build 0)  -->
<svg version="1.1" id="Layer_1" xmlns="http://www.w3.org/2000/svg" xmlns:xlink="http://www.w3.org/1999/xlink" x="0px" y="0px"
	 viewBox="0 0 995.8 481.5" style="enable-background:new 0 0 995.8 481.5;" xml:space="preserve">
<style type="text/css">
	.st0{fill:none;}
	.st1{fill:#002E6D;}
	.st2{fill:#FEBE85;}
	.st3{fill:#4AC1E0;}
	.st4{fill:#2ED9C3;}
</style>
<g>
	<path class="st0" d="M776.5,211.3c-33,0-51.4,24.8-51.4,56.3c0,31.5,18.4,56,51.4,56c32.4,0,51.4-24.5,51.4-56
		C827.9,236.1,808.9,211.3,776.5,211.3z"/>
	<path class="st0" d="M535.7,208.8v64.9l25.7-0.9c21.4-0.9,30-14.4,30-31.8c0-20.5-11.9-32.1-30.6-32.1H535.7z"/>
	<path class="st0" d="M150.6,211.3c-33,0-51.4,24.8-51.4,56.3c0,31.5,18.4,56,51.4,56c32.4,0,51.4-24.5,51.4-56
		C202,236.1,183,211.3,150.6,211.3z"/>
	<polygon class="st0" points="393.4,453.8 393.4,453.8 393.4,453.8 	"/>
	<path class="st1" d="M636.4,413.3l-27,27c-2.2,2.2-2.2,5.9,0,8.1c2.2,2.2,5.9,2.2,8.1,0l26.6-26.6c-1.2-0.9-2.4-1.8-3.4-2.9
		C639,417.2,637.5,415.3,636.4,413.3z"/>
	<path class="st1" d="M607.3,97.6h20.4c-0.1-0.9-0.1-1.7-0.1-2.6c0-3.1,0.5-6,1.4-8.8c-0.1,0-0.2,0-0.3,0h-22.2
		C607.6,89.9,607.9,93.8,607.3,97.6z"/>
	<path class="st1" d="M354.9,98.3c0.2,0,0.5,0.1,0.7,0.1h61.1c-0.4-1.9-0.6-3.8-0.6-5.7c0-2,0.2-3.9,0.6-5.7h-61.1
		c-0.4,0-0.8,0-1.1,0.1C355.4,90.7,355.6,94.6,354.9,98.3z"/>
	<path class="st1" d="M237.7,191.5l74.4-74.4c-1.6-1-3.1-2.2-4.5-3.6c-1.4-1.4-2.6-2.9-3.6-4.5l-74.3,74.3
		C232.5,185.8,235.1,188.6,237.7,191.5z"/>
	<path class="st1" d="M350.8,78.3l26.9-26.9c-1.6-1-3.1-2.2-4.5-3.6c-1.4-1.4-2.6-2.9-3.6-4.5l-26.9,26.9c1.6,1,3.1,2.2,4.5,3.6
		C348.6,75.3,349.8,76.8,350.8,78.3z"/>
	<path class="st1" d="M471.6,98.5h80.6c-0.7-3.8-0.5-7.7,0.4-11.5h-80.9c0.4,1.8,0.6,3.7,0.6,5.6C472.2,94.7,472,96.6,471.6,98.5z"
		/>
	<path class="st1" d="M69.4,349.7l-26.1,26.1c1.6,1,3.1,2.2,4.5,3.6c1.4,1.4,2.6,2.9,3.6,4.5L78,357.3
		C75,354.9,72.1,352.3,69.4,349.7z"/>
	<path class="st1" d="M698.6,352.9l-22.9,22.9c1.6,1,3.1,2.2,4.5,3.6c1.4,1.4,2.6,2.9,3.6,4.5l23.7-23.7
		C704.5,357.9,701.5,355.4,698.6,352.9z"/>
	<path class="st1" d="M43.3,161.1l25.1,25.1c2.7-2.7,5.5-5.3,8.5-7.8L51.4,153c-1,1.6-2.2,3.1-3.6,4.5
		C46.4,158.9,44.9,160.1,43.3,161.1z"/>
	<path class="st1" d="M940.5,261.7h-49c0.1,2,0.1,3.9,0.1,5.9c0,1.9-0.1,3.7-0.1,5.6h48.9c-0.4-1.9-0.6-3.8-0.6-5.7
		S940.1,263.5,940.5,261.7z"/>
	<path class="st1" d="M595,117.1l85.7,85.7c2.2-3.2,4.5-6.3,6.9-9.3L603.1,109c-1,1.6-2.2,3.1-3.6,4.5S596.6,116,595,117.1z"/>
	<path class="st1" d="M361.7,334.3c-19.3,0-33.3-13.5-37-24.8c-0.4-1.5-0.5-2.1-1.2-2.1c-0.4,0-1.1,0.2-2.1,0.6l-37.6,15.3
		c-2.1,0.9-2.4,2.4-1.2,5.8c10.4,30,36.4,46.8,78,46.8c48,0,86.9-20.8,86.9-67.9c0-38.2-22.6-59-61.8-64.5c-4-0.6-7.3-1.2-10.1-1.5
		c-27.5-4.6-38.9-10.4-38.9-24.5c0-11.3,6.7-19.3,28.1-19.3c15.9,0,30,11.9,34.3,24.2c0.4,1,1,1.7,2,1.7c0.5,0,1-0.1,1.7-0.4
		l35.8-14.4c1.8-0.6,3.1-1.8,2.1-5.2c-8-25.7-33-45-73.7-45c-54.1,0-81.4,27.8-81.4,67.6c0,37.9,25.7,58.7,62.7,62.4
		c2.1,0.3,5.2,0.6,7.3,0.9c28.1,3.4,37,11.3,37,23.9C392.6,327.8,382.8,334.3,361.7,334.3z"/>
	<path class="st1" d="M483.4,163.2c-0.2,0-0.4,0-0.6,0c-1.1,0-2.1,0.2-2.1,2.8c0,73.1,0,123,0,201.9c0,2.5,0,2.8,1.6,2.8
		c0.3,0,0.7,0,1.2,0c18,0,30.3,0,49.6,0c2.4,0,2.8-0.3,2.8-2.8c0-23.9,0-49.3,0-49.3s34.6-0.3,43.4-1.2
		c39.2-4.6,68.8-24.5,68.8-74.6c0-47.1-27.2-79.5-72.8-79.5H483.4z M591.4,240.9c0,17.4-8.6,30.9-30,31.8l-25.7,0.9v-64.9h25.1
		C579.5,208.8,591.4,220.5,591.4,240.9z"/>
	<path class="st1" d="M776.5,159c-34.6,0-64.5,15.3-84.2,39.3c-2.5,3-4.7,6.1-6.9,9.4c-11.2,17.2-17.6,37.8-17.6,60
		c0,32.1,13.4,60.9,35.4,80.7c2.9,2.6,5.9,5,9,7.2c17.8,12.8,39.8,20.4,64.2,20.4c59.9,0,105.7-45.4,108.5-102.7
		c0.1-1.9,0.1-3.7,0.1-5.6c0-2-0.1-3.9-0.2-5.9C882,204.4,836.3,159,776.5,159z M776.5,323.5c-33,0-51.4-24.5-51.4-56
		c0-31.5,18.4-56.3,51.4-56.3c32.4,0,51.4,24.8,51.4,56.3C827.9,299.1,808.9,323.5,776.5,323.5z"/>
	<path class="st1" d="M281.4,414.5c-1,1.6-2.2,3.1-3.6,4.5c-1.4,1.4-2.9,2.6-4.5,3.6l25.9,25.9c2.2,2.2,5.9,2.2,8.1,0
		c2.2-2.2,2.2-5.9,0-8.1L281.4,414.5z"/>
	<path class="st2" d="M675.8,375.7c-10.8-7.1-25.6-5.9-35.1,3.6c-9.2,9.2-10.6,23.2-4.3,34c1.2,2,2.6,3.9,4.3,5.6
		c1.1,1.1,2.2,2,3.4,2.9c10.9,7.9,26.3,7,36.2-2.9c9.5-9.5,10.7-24.3,3.6-35.1c-1-1.6-2.2-3.1-3.6-4.5
		C678.9,378,677.4,376.8,675.8,375.7z"/>
	<path class="st2" d="M416.8,98.4c2.7,12.7,13.9,22.2,27.4,22.2c13.4,0,24.7-9.5,27.4-22.1c0.4-1.9,0.6-3.9,0.6-5.9
		c0-1.9-0.2-3.8-0.6-5.6c-2.6-12.7-13.9-22.4-27.4-22.4c-13.5,0-24.7,9.6-27.4,22.2c-0.4,1.9-0.6,3.8-0.6,5.7
		C416.2,94.6,416.4,96.6,416.8,98.4z"/>
	<path class="st3" d="M627.7,97.6c1.3,14.2,13.3,25.4,27.9,25.4c15.4,0,28-12.6,28-28s-12.6-28-28-28c-12.4,0-22.8,8.1-26.5,19.2
		c-0.9,2.8-1.4,5.7-1.4,8.8C627.6,95.8,627.7,96.7,627.7,97.6z"/>
	<path class="st3" d="M43.3,375.7c-10.8-7.1-25.6-5.9-35.1,3.6c-10.9,10.9-10.9,28.7,0,39.6c10.9,10.9,28.7,10.9,39.6,0
		c9.5-9.5,10.7-24.3,3.6-35.1c-1-1.6-2.2-3.1-3.6-4.5C46.4,378,44.9,376.8,43.3,375.7z"/>
	<path class="st3" d="M43.3,161.1c1.6-1,3.1-2.2,4.5-3.6c1.4-1.4,2.6-2.9,3.6-4.5c7.1-10.9,5.9-25.6-3.6-35.1
		c-10.9-10.9-28.7-10.9-39.6,0c-10.9,10.9-10.9,28.7,0,39.6C17.7,167,32.4,168.2,43.3,161.1z"/>
	<path class="st3" d="M552.1,98.5c1,5.5,3.5,10.7,7.7,14.9c9.5,9.5,24.3,10.7,35.1,3.6c1.6-1,3.1-2.2,4.5-3.6s2.6-2.9,3.6-4.5
		c2.3-3.5,3.7-7.4,4.2-11.4c0.5-3.8,0.3-7.7-0.7-11.5c-1.2-4.5-3.6-8.7-7.1-12.2c-10.9-10.9-28.7-10.9-39.6,0
		c-3.8,3.8-6.2,8.4-7.4,13.2C551.6,90.8,551.5,94.7,552.1,98.5z"/>
	<path class="st4" d="M377.8,51.4c10.8,7.1,25.6,5.9,35.1-3.6c10.9-10.9,10.9-28.7,0-39.6s-28.7-10.9-39.6,0
		c-9.5,9.5-10.7,24.3-3.6,35.1c1,1.6,2.2,3.1,3.6,4.5C374.7,49.2,376.2,50.4,377.8,51.4z"/>
	<path class="st4" d="M312.1,117.1c10.8,7.1,25.6,5.9,35.1-3.6c4.3-4.3,6.8-9.6,7.8-15.1c0.6-3.7,0.5-7.6-0.4-11.3
		c-0.7-3-2-6-3.7-8.7c-1-1.6-2.2-3.1-3.6-4.5c-1.4-1.4-2.9-2.6-4.5-3.6c-10.8-7.1-25.6-5.9-35.1,3.6c-9.5,9.5-10.7,24.3-3.6,35.1
		c1,1.6,2.2,3.1,3.6,4.5C309,114.8,310.5,116,312.1,117.1z"/>
	<path class="st4" d="M967.8,239.4c-13.5,0-24.7,9.6-27.4,22.2c-0.4,1.9-0.6,3.8-0.6,5.7s0.2,3.9,0.6,5.7
		c2.7,12.7,13.9,22.2,27.4,22.2c15.4,0,28-12.6,28-28S983.3,239.4,967.8,239.4z"/>
	<g>
		<path class="st1" d="M238.2,379.4c1.4-1.4,2.9-2.6,4.4-3.6l-17.8-18.2c-2.9,2.5-5.9,4.9-9,7.2l18.7,19.2c0,0,0,0,0,0
			C235.6,382.3,236.8,380.8,238.2,379.4z"/>
		<path class="st4" d="M277.7,379.4c-9.5-9.5-24.3-10.7-35.1-3.6c0,0,0,0,0,0c-1.6,1-3.1,2.2-4.4,3.6c-1.4,1.4-2.6,2.9-3.6,4.5
			c0,0,0,0,0,0c-7.1,10.8-5.9,25.6,3.7,35.1c9.5,9.5,24.3,10.7,35.1,3.6c1.6-1,3.1-2.2,4.5-3.6c1.4-1.4,2.6-2.9,3.6-4.5
			C288.5,403.6,287.3,388.9,277.7,379.4z"/>
	</g>
	<path class="st1" d="M150.6,159c-34.6,0-64.5,15.3-84.2,39.3c-2.5,3-4.7,6.1-6.9,9.4c-11.2,17.2-17.6,37.8-17.6,60
		c0,32.1,13.4,60.9,35.4,80.7c2.9,2.6,5.9,5,9,7.2c17.8,12.8,39.8,20.4,64.2,20.4c59.9,0,105.7-45.4,108.5-102.7
		c0.1-1.9,0.1-3.7,0.1-5.6c0-2-0.1-3.9-0.2-5.9C256.1,204.4,210.4,159,150.6,159z M150.6,323.5c-33,0-51.4-24.5-51.4-56
		c0-31.5,18.4-56.3,51.4-56.3c32.4,0,51.4,24.8,51.4,56.3C202,299.1,183.1,323.5,150.6,323.5z"/>
	<g>
		<path class="st1" d="M387.9,460.1c0,0-0.1-0.1-0.1-0.1l-2.2-1.2c-1.8-1.1-3.4-0.6-4.8,1.5c-3.3,5.7-8.6,12.3-20.2,12.3
			c-13,0-23.1-10.5-23.1-23.8c0-13.4,10.1-23.9,22.9-23.9c9.4,0,16.8,4.3,19.9,11.7c0.8,1.8,2.5,2.6,4.1,2.1l2.7-0.9
			c0.8-0.3,1.4-0.8,1.8-1.5c0.6-1.3,0.1-2.5-0.1-3c-3-8.4-12.1-17.3-28.3-17.3c-18.4,0-32.7,14.5-32.7,32.9
			c0,19,13.8,32.8,32.9,32.8c12.4,0,22.1-5.9,28-17.1C390,462.2,389,460.8,387.9,460.1z M384.2,460.7
			C384.2,460.7,384.2,460.7,384.2,460.7L384.2,460.7L384.2,460.7z"/>
		<path class="st1" d="M436.2,417.4l-2.1,1L436.2,417.4c-0.6-1.3-1.6-1.9-2.8-1.9c-1.2,0-2.2,0.6-2.8,1.9
			c-5.5,10.9-25.6,52.3-28.3,58c-0.3,0.5-1,1.9-0.1,3.3c0.8,1.3,2.4,1.3,2.9,1.3h3c2.3,0,3.1-1.4,3.5-2.2c0,0,0-0.1,0.1-0.1
			l5.6-11.7h32.2l5.7,12c0,0.1,0.1,0.1,0.1,0.2c0.4,0.7,1.1,1.9,3,1.9h3.7c1.6,0,2.4-0.8,2.7-1.3c0.4-0.6,0.7-1.7,0-3.1
			C461.2,468.4,442,429.1,436.2,417.4z M445.3,457.2h-23.9c2.7-5.6,8.1-16.9,12-25.2C437.3,440.2,442.7,451.6,445.3,457.2z"/>
		<path class="st1" d="M504.4,444C504.4,444,504.4,444,504.4,444c-0.9-0.2-2.5-0.5-3.3-0.7c-9.4-2-13.2-4.8-13.2-9.8
			c0-7.2,7.3-8.7,13.4-8.7c7.3,0,12.2,3.2,14.5,9.5c0.4,0.9,0.9,1.5,1.7,1.8c0.8,0.3,1.6,0.2,2.4-0.3l2.5-1.1
			c1.3-0.6,2.6-1.8,1.8-4.3c-3.3-9.3-11.6-14.6-22.8-14.6c-14.1,0-22.9,7-22.9,18.3c0,12.1,10.2,16,20.1,18.3
			c0.4,0.1,1.1,0.2,1.7,0.4c0.6,0.1,1.2,0.2,1.6,0.3c10.7,2.3,14.1,4.8,14.1,10.4c0,6-4.8,9.1-14.3,9.1c-7.8,0-13.7-3.5-15.8-9.3
			c-0.1-0.4-0.4-1.4-1.5-1.9c-1.1-0.5-2-0.1-2.5,0.1l-3.1,1.1c0,0-0.1,0-0.1,0c-0.5,0.2-1.4,0.5-1.9,1.6c-0.5,1.2-0.1,2.3,0.2,3
			c3.6,9.1,12.7,14.3,25,14.3c14.8,0,23.4-6.9,23.4-19.1C525.5,456.4,523.3,447.9,504.4,444z"/>
		<path class="st1" d="M586.5,417H543c-0.9,0-3.1,0.3-3.1,3.2v2.8c0,1.8,1.1,3,3,3h17v50.8c0,2.2,1.1,3.3,3.2,3.3h3.4
			c1.1,0,3-0.4,3-3.1V426h16.9c2.8,0,3.1-2.1,3.1-3v-2.8C589.5,417.5,587.8,417,586.5,417z"/>
	</g>
</g>
</svg>
